<svg width="2990" height="578" viewBox="0 0 2990 578" version="1.1" xmlns="http://www.w3.org/2000/svg" xmlns:xlink="http://www.w3.org/1999/xlink" xmlns:figma="http://www.figma.com/figma/ns">
<title>Edmir Alagic</title>
<desc>Created using Figma</desc>
<g id="Canvas" transform="matrix(2 0 0 2 -846 1154)" figma:type="canvas">
<g id="Edmir Alagic" figma:type="text">
<use xlink:href="#path0_fill" transform="matrix(1 2.67189e-24 -2.67189e-24 1 422 -648)" fill="#FFFFFF"/>
</g>
</g>
<defs>
<path id="path0_fill" d="M 139.359 239.062C 135.516 247.5 130.594 255.047 124.594 261.703C 118.688 268.359 111.984 274.031 104.484 278.719C 97.0781 283.406 89.1562 286.969 80.7188 289.406C 72.2812 291.938 63.7031 293.203 54.9844 293.203C 45.7031 293.203 37.6875 291.797 30.9375 288.984C 24.2812 286.266 18.7969 282.562 14.4844 277.875C 10.2656 273.188 7.125 267.797 5.0625 261.703C 3 255.609 1.96875 249.188 1.96875 242.438C 1.96875 234.844 3.1875 227.109 5.625 219.234C 8.0625 211.359 11.5312 204 16.0312 197.156C 20.625 190.219 26.2031 184.172 32.7656 179.016C 39.4219 173.766 46.9219 170.062 55.2656 167.906C 49.0781 163.406 44.5781 158.156 41.7656 152.156C 39.0469 146.062 37.6875 139.781 37.6875 133.312C 37.6875 125.906 39.2344 118.547 42.3281 111.234C 45.5156 103.828 49.875 97.1719 55.4062 91.2656C 61.0312 85.3594 67.6875 80.5781 75.375 76.9219C 83.1562 73.2656 91.6406 71.4375 100.828 71.4375C 106.547 71.4375 111.891 72.2344 116.859 73.8281C 121.922 75.3281 126.328 77.5781 130.078 80.5781C 133.828 83.5781 136.734 87.3281 138.797 91.8281C 140.953 96.3281 142.031 101.531 142.031 107.438C 142.031 111.75 141.469 115.734 140.344 119.391C 139.219 123.047 137.672 126.234 135.703 128.953C 133.734 131.578 131.438 133.641 128.812 135.141C 126.281 136.641 123.562 137.391 120.656 137.391C 115.406 137.391 110.906 134.812 107.156 129.656C 108.844 129.094 110.438 127.922 111.938 126.141C 113.531 124.359 114.891 122.297 116.016 119.953C 117.234 117.609 118.172 115.078 118.828 112.359C 119.484 109.641 119.812 107.016 119.812 104.484C 119.812 101.578 119.344 99.0938 118.406 97.0312C 117.469 94.9687 116.25 93.3281 114.75 92.1094C 113.344 90.7969 111.656 89.8594 109.688 89.2969C 107.812 88.7344 105.891 88.4531 103.922 88.4531C 99.6094 88.4531 95.625 89.625 91.9688 91.9688C 88.4062 94.3125 85.3125 97.4063 82.6875 101.25C 80.1562 105 78.1406 109.312 76.6406 114.188C 75.2344 119.063 74.5312 124.031 74.5312 129.094C 74.5312 133.312 75.0469 137.438 76.0781 141.469C 77.2031 145.5 78.9375 149.25 81.2812 152.719C 83.625 156.094 86.625 159.094 90.2812 161.719C 94.0312 164.25 98.4844 166.219 103.641 167.625C 98.4844 168.75 93.6094 170.625 89.0156 173.25C 84.5156 175.875 80.3438 179.016 76.5 182.672C 72.75 186.234 69.375 190.219 66.375 194.625C 63.375 199.031 60.7969 203.625 58.6406 208.406C 56.5781 213.094 54.9844 217.828 53.8594 222.609C 52.7344 227.391 52.1719 231.984 52.1719 236.391C 52.1719 240.422 52.6875 244.219 53.7188 247.781C 54.75 251.344 56.3438 254.438 58.5 257.062C 60.6562 259.688 63.4688 261.75 66.9375 263.25C 70.4062 264.75 74.5781 265.5 79.4531 265.5C 83.8594 265.5 88.5938 264.891 93.6562 263.672C 98.8125 262.453 103.828 260.625 108.703 258.188C 113.578 255.656 118.125 252.562 122.344 248.906C 126.562 245.25 130.031 240.984 132.75 236.109L 139.359 239.062ZM 295.453 236.391C 292.734 244.172 289.781 250.875 286.594 256.5C 283.406 262.125 280.078 266.859 276.609 270.703C 273.234 274.453 269.766 277.5 266.203 279.844C 262.641 282.094 259.172 283.828 255.797 285.047C 252.422 286.266 249.188 287.062 246.094 287.438C 243 287.812 240.188 288 237.656 288C 229.688 288 223.266 285.938 218.391 281.812C 213.516 277.594 210.516 271.406 209.391 263.25C 207.234 266.531 204.75 269.766 201.938 272.953C 199.219 276.047 196.078 278.859 192.516 281.391C 189.047 283.828 185.156 285.844 180.844 287.438C 176.531 288.938 171.844 289.688 166.781 289.688C 161.812 289.688 157.031 288.891 152.438 287.297C 147.844 285.703 143.766 283.078 140.203 279.422C 136.641 275.766 133.781 270.984 131.625 265.078C 129.469 259.172 128.391 251.953 128.391 243.422C 128.391 236.859 129.047 229.828 130.359 222.328C 131.672 214.828 133.688 207.328 136.406 199.828C 139.125 192.328 142.5 185.156 146.531 178.312C 150.656 171.375 155.438 165.281 160.875 160.031C 166.406 154.688 172.641 150.469 179.578 147.375C 186.516 144.188 194.156 142.594 202.5 142.594C 210.656 142.594 216.562 144 220.219 146.812C 223.969 149.625 225.844 153.094 225.844 157.219L 225.844 158.344L 239.906 92.1094L 282.516 86.3438L 249.469 241.875C 249 243.469 248.672 245.062 248.484 246.656C 248.297 248.156 248.203 249.656 248.203 251.156C 248.203 255.188 249.141 258 251.016 259.594C 252.984 261.094 255.984 261.844 260.016 261.844C 262.828 261.844 265.406 261.234 267.75 260.016C 270.188 258.703 272.344 256.922 274.219 254.672C 276.188 252.422 277.922 249.75 279.422 246.656C 280.922 243.469 282.234 240.047 283.359 236.391L 295.453 236.391ZM 209.109 236.391L 223.172 170.438C 222.984 169.594 222.656 168.609 222.188 167.484C 221.812 166.359 221.203 165.281 220.359 164.25C 219.516 163.125 218.344 162.234 216.844 161.578C 215.438 160.828 213.609 160.453 211.359 160.453C 207.328 160.453 203.484 161.766 199.828 164.391C 196.266 167.016 192.984 170.531 189.984 174.938C 186.984 179.25 184.312 184.172 181.969 189.703C 179.625 195.234 177.609 200.953 175.922 206.859C 174.328 212.672 173.109 218.438 172.266 224.156C 171.422 229.781 171 234.844 171 239.344C 171 244.875 171.516 249.141 172.547 252.141C 173.578 255.141 174.797 257.391 176.203 258.891C 177.703 260.297 179.297 261.141 180.984 261.422C 182.672 261.703 184.172 261.844 185.484 261.844C 187.453 261.844 189.609 261.375 191.953 260.438C 194.391 259.406 196.688 257.906 198.844 255.938C 201.094 253.969 203.109 251.484 204.891 248.484C 206.766 245.484 208.172 241.969 209.109 237.938L 209.109 236.391ZM 512.156 236.391C 508.125 248.203 503.766 257.625 499.078 264.656C 494.484 271.688 489.797 277.078 485.016 280.828C 480.328 284.484 475.688 286.875 471.094 288C 466.594 289.125 462.422 289.688 458.578 289.688C 452.203 289.688 446.859 288.797 442.547 287.016C 438.234 285.141 434.766 282.703 432.141 279.703C 429.516 276.609 427.594 273.141 426.375 269.297C 425.25 265.359 424.688 261.328 424.688 257.203C 424.688 252.328 425.344 246.656 426.656 240.188C 428.062 233.625 429.562 226.922 431.156 220.078C 432.75 213.234 434.203 206.625 435.516 200.25C 436.922 193.875 437.625 188.391 437.625 183.797C 437.625 173.953 434.156 169.031 427.219 169.031C 424.594 169.031 422.156 169.734 419.906 171.141C 417.656 172.547 415.594 174.469 413.719 176.906C 411.844 179.25 410.156 182.062 408.656 185.344C 407.156 188.531 405.844 191.953 404.719 195.609L 385.172 288L 343.688 288L 364.781 188.578C 365.344 186.328 365.625 183.938 365.625 181.406C 365.625 179.719 365.484 178.125 365.203 176.625C 364.922 175.125 364.406 173.812 363.656 172.688C 363 171.469 362.109 170.531 360.984 169.875C 359.953 169.125 358.594 168.75 356.906 168.75C 354.094 168.75 351.469 169.453 349.031 170.859C 346.688 172.266 344.531 174.188 342.562 176.625C 340.688 179.062 339 181.922 337.5 185.203C 336 188.484 334.688 191.953 333.562 195.609L 314.016 288L 272.531 288L 303.047 144L 344.531 144L 341.438 158.906C 344.531 155.438 347.625 152.672 350.719 150.609C 353.812 148.453 356.859 146.812 359.859 145.688C 362.859 144.469 365.766 143.672 368.578 143.297C 371.391 142.828 374.062 142.594 376.594 142.594C 380.344 142.594 383.859 143.062 387.141 144C 390.422 144.844 393.328 146.25 395.859 148.219C 398.391 150.188 400.547 152.766 402.328 155.953C 404.109 159.047 405.375 162.844 406.125 167.344C 409.594 162 413.156 157.734 416.812 154.547C 420.469 151.266 424.031 148.781 427.5 147.094C 430.969 145.406 434.297 144.281 437.484 143.719C 440.672 143.156 443.578 142.875 446.203 142.875C 450.797 142.875 455.016 143.484 458.859 144.703C 462.797 145.922 466.172 147.844 468.984 150.469C 471.891 153.094 474.141 156.469 475.734 160.594C 477.328 164.719 478.125 169.641 478.125 175.359C 478.125 179.203 477.75 183.375 477 187.875C 476.344 192.281 475.5 196.828 474.469 201.516C 473.531 206.109 472.453 210.703 471.234 215.297C 470.016 219.891 468.891 224.297 467.859 228.516C 466.922 232.734 466.078 236.672 465.328 240.328C 464.672 243.891 464.344 247.031 464.344 249.75C 464.344 253.312 465.141 256.219 466.734 258.469C 468.422 260.719 471.469 261.844 475.875 261.844C 478.969 261.844 481.688 261.234 484.031 260.016C 486.375 258.797 488.484 257.062 490.359 254.812C 492.234 252.562 493.922 249.891 495.422 246.797C 497.016 243.609 498.562 240.141 500.062 236.391L 512.156 236.391ZM 571.219 105.75C 571.219 108.938 570.609 111.938 569.391 114.75C 568.172 117.469 566.484 119.859 564.328 121.922C 562.266 123.891 559.828 125.484 557.016 126.703C 554.297 127.828 551.344 128.391 548.156 128.391C 544.969 128.391 541.969 127.828 539.156 126.703C 536.438 125.484 534.047 123.891 531.984 121.922C 529.922 119.859 528.281 117.469 527.062 114.75C 525.938 111.938 525.375 108.938 525.375 105.75C 525.375 102.562 525.938 99.6094 527.062 96.8906C 528.281 94.0781 529.922 91.6406 531.984 89.5781C 534.047 87.4219 536.438 85.7344 539.156 84.5156C 541.969 83.2969 544.969 82.6875 548.156 82.6875C 551.344 82.6875 554.297 83.2969 557.016 84.5156C 559.828 85.7344 562.266 87.4219 564.328 89.5781C 566.484 91.6406 568.172 94.0781 569.391 96.8906C 570.609 99.6094 571.219 102.562 571.219 105.75ZM 589.078 236.391C 586.359 244.172 583.312 250.922 579.938 256.641C 576.656 262.359 573.188 267.188 569.531 271.125C 565.969 275.062 562.266 278.25 558.422 280.688C 554.672 283.125 551.016 285 547.453 286.312C 543.891 287.625 540.469 288.516 537.188 288.984C 534 289.453 531.141 289.688 528.609 289.688C 524.297 289.688 520.266 289.031 516.516 287.719C 512.766 286.406 509.484 284.344 506.672 281.531C 503.953 278.719 501.797 275.156 500.203 270.844C 498.609 266.531 497.812 261.328 497.812 255.234C 497.812 252.609 498 249.75 498.375 246.656C 498.75 243.469 499.312 240.047 500.062 236.391L 519.609 144L 561.094 144L 540.422 241.875C 539.953 243.469 539.625 245.062 539.438 246.656C 539.344 248.156 539.297 249.656 539.297 251.156C 539.297 255.188 540.234 258 542.109 259.594C 543.984 261.094 546.938 261.844 550.969 261.844C 553.781 261.844 556.5 261.234 559.125 260.016C 561.844 258.703 564.328 256.922 566.578 254.672C 568.828 252.422 570.844 249.75 572.625 246.656C 574.406 243.469 575.859 240.047 576.984 236.391L 589.078 236.391ZM 566.156 288L 596.672 144L 638.156 144L 634.5 161.859C 637.031 159.609 639.609 157.406 642.234 155.25C 644.859 153.094 647.578 151.219 650.391 149.625C 653.297 147.938 656.297 146.578 659.391 145.547C 662.484 144.516 665.766 144 669.234 144C 672.516 144 675.375 144.609 677.812 145.828C 680.344 147.047 682.453 148.641 684.141 150.609C 685.828 152.578 687.094 154.875 687.938 157.5C 688.781 160.125 689.203 162.844 689.203 165.656C 689.203 168.188 688.781 170.719 687.938 173.25C 687.094 175.688 685.781 177.891 684 179.859C 682.312 181.828 680.156 183.469 677.531 184.781C 674.906 186 671.859 186.609 668.391 186.609C 665.672 186.609 663.562 186.141 662.062 185.203C 660.656 184.266 659.578 183.094 658.828 181.688C 658.078 180.281 657.516 178.781 657.141 177.188C 656.859 175.5 656.531 173.953 656.156 172.547C 655.781 171.141 655.266 169.969 654.609 169.031C 654.047 168.094 653.062 167.625 651.656 167.625C 647.25 167.625 643.547 168.656 640.547 170.719C 637.547 172.688 634.266 175.312 630.703 178.594L 607.641 288L 566.156 288ZM 860.484 288L 882.562 183.516C 875.25 180.141 868.547 177.703 862.453 176.203C 856.453 174.703 850.312 173.672 844.031 173.109C 838.594 184.828 833.578 196.875 828.984 209.25C 824.484 221.625 820.547 233.672 817.172 245.391C 813.891 257.016 811.312 267.938 809.438 278.156C 807.562 288.375 806.625 297.234 806.625 304.734C 806.625 309.328 807 312.797 807.75 315.141C 808.594 317.578 809.531 319.453 810.562 320.766C 806.719 320.766 802.547 320.578 798.047 320.203C 793.641 319.828 789.469 318.656 785.531 316.688C 781.688 314.812 778.453 311.812 775.828 307.688C 773.297 303.562 772.031 297.75 772.031 290.25C 772.031 283.875 773.016 276.234 774.984 267.328C 777.047 258.422 779.953 248.859 783.703 238.641C 787.453 228.328 791.906 217.594 797.062 206.438C 802.219 195.188 807.984 184.078 814.359 173.109C 805.266 173.672 797.812 175.078 792 177.328C 786.281 179.484 782.484 183.047 780.609 188.016C 781.359 188.016 782.156 189 783 190.969C 783.938 192.844 784.406 194.859 784.406 197.016C 784.406 200.484 782.812 203.25 779.625 205.312C 776.531 207.281 772.734 208.266 768.234 208.266C 765.703 208.266 763.359 207.938 761.203 207.281C 759.047 206.531 757.172 205.5 755.578 204.188C 753.984 202.781 752.719 201.047 751.781 198.984C 750.844 196.828 750.375 194.344 750.375 191.531C 750.375 186.656 751.828 182.062 754.734 177.75C 757.734 173.438 761.859 169.688 767.109 166.5C 772.359 163.312 778.547 160.781 785.672 158.906C 792.891 157.031 800.719 156.094 809.156 156.094C 813.094 156.094 818.109 156.375 824.203 156.938C 831.516 145.406 839.25 134.531 847.406 124.312C 855.562 114 863.953 105 872.578 97.3125C 881.203 89.5313 889.875 83.3906 898.594 78.8906C 907.312 74.2969 915.891 72 924.328 72C 927.703 72 931.453 72.2812 935.578 72.8438C 939.797 73.4062 943.641 74.4844 947.109 76.0781L 901.969 288L 860.484 288ZM 901.969 92.3906C 897.656 94.7344 893.25 98.1094 888.75 102.516C 884.344 106.828 879.938 111.984 875.531 117.984C 871.219 123.891 866.906 130.5 862.594 137.812C 858.281 145.031 854.109 152.672 850.078 160.734C 855.891 161.859 861.797 163.266 867.797 164.953C 873.797 166.547 879.609 168.469 885.234 170.719L 901.969 92.3906ZM 1029.23 236.391C 1026.52 244.172 1023.47 250.922 1020.09 256.641C 1016.81 262.359 1013.34 267.188 1009.69 271.125C 1006.12 275.062 1002.42 278.25 998.578 280.688C 994.828 283.125 991.172 285 987.609 286.312C 984.047 287.625 980.625 288.516 977.344 288.984C 974.156 289.453 971.297 289.688 968.766 289.688C 964.453 289.688 960.422 289.031 956.672 287.719C 952.922 286.406 949.641 284.344 946.828 281.531C 944.109 278.719 941.953 275.156 940.359 270.844C 938.766 266.531 937.969 261.328 937.969 255.234C 937.969 252.609 938.156 249.75 938.531 246.656C 938.906 243.469 939.469 240.047 940.219 236.391L 971.016 92.1094L 1013.62 86.3438L 980.578 241.875C 980.109 243.469 979.781 245.062 979.594 246.656C 979.5 248.156 979.453 249.656 979.453 251.156C 979.453 255.188 980.391 258 982.266 259.594C 984.141 261.094 987.094 261.844 991.125 261.844C 993.938 261.844 996.656 261.234 999.281 260.016C 1002 258.703 1004.48 256.922 1006.73 254.672C 1008.98 252.422 1011 249.75 1012.78 246.656C 1014.56 243.469 1016.02 240.047 1017.14 236.391L 1029.23 236.391ZM 1180.83 236.391C 1178.11 244.172 1175.16 250.922 1171.97 256.641C 1168.78 262.359 1165.45 267.188 1161.98 271.125C 1158.61 275.062 1155.14 278.25 1151.58 280.688C 1148.02 283.125 1144.55 285 1141.17 286.312C 1137.8 287.625 1134.56 288.516 1131.47 288.984C 1128.38 289.453 1125.56 289.688 1123.03 289.688C 1114.88 289.688 1108.36 287.484 1103.48 283.078C 1098.7 278.578 1095.8 271.969 1094.77 263.25C 1092.42 266.531 1089.84 269.766 1087.03 272.953C 1084.22 276.047 1081.08 278.859 1077.61 281.391C 1074.14 283.828 1070.25 285.844 1065.94 287.438C 1061.72 288.938 1057.03 289.688 1051.88 289.688C 1046.91 289.688 1042.12 288.891 1037.53 287.297C 1032.94 285.703 1028.86 283.078 1025.3 279.422C 1021.73 275.766 1018.88 270.984 1016.72 265.078C 1014.56 259.172 1013.48 251.953 1013.48 243.422C 1013.48 236.859 1014.14 229.828 1015.45 222.328C 1016.77 214.828 1018.78 207.328 1021.5 199.828C 1024.22 192.328 1027.59 185.156 1031.62 178.312C 1035.75 171.375 1040.53 165.281 1045.97 160.031C 1051.5 154.688 1057.73 150.469 1064.67 147.375C 1071.61 144.188 1079.25 142.594 1087.59 142.594C 1095.75 142.594 1101.66 144 1105.31 146.812C 1109.06 149.625 1110.94 153.094 1110.94 157.219L 1110.94 159.328L 1114.03 144L 1155.52 144L 1134.84 241.875C 1134.38 243.469 1134.05 245.062 1133.86 246.656C 1133.67 248.156 1133.58 249.656 1133.58 251.156C 1133.58 259.406 1137.52 263.531 1145.39 263.531C 1148.2 263.531 1150.78 262.828 1153.12 261.422C 1155.56 259.922 1157.77 257.953 1159.73 255.516C 1161.7 253.078 1163.44 250.219 1164.94 246.938C 1166.44 243.562 1167.7 240.047 1168.73 236.391L 1180.83 236.391ZM 1108.27 171.422C 1108.27 170.578 1108.08 169.547 1107.7 168.328C 1107.33 167.016 1106.67 165.797 1105.73 164.672C 1104.89 163.453 1103.72 162.469 1102.22 161.719C 1100.72 160.875 1098.8 160.453 1096.45 160.453C 1092.42 160.453 1088.58 161.766 1084.92 164.391C 1081.36 167.016 1078.08 170.531 1075.08 174.938C 1072.08 179.25 1069.41 184.172 1067.06 189.703C 1064.72 195.234 1062.7 200.953 1061.02 206.859C 1059.42 212.672 1058.2 218.438 1057.36 224.156C 1056.52 229.781 1056.09 234.844 1056.09 239.344C 1056.09 244.875 1056.61 249.141 1057.64 252.141C 1058.67 255.141 1059.89 257.391 1061.3 258.891C 1062.8 260.297 1064.39 261.141 1066.08 261.422C 1067.77 261.703 1069.27 261.844 1070.58 261.844C 1072.73 261.844 1074.98 261.328 1077.33 260.297C 1079.77 259.172 1082.06 257.578 1084.22 255.516C 1086.47 253.359 1088.48 250.688 1090.27 247.5C 1092.14 244.312 1093.55 240.609 1094.48 236.391L 1108.27 171.422ZM 1271.67 311.062C 1269.61 321.375 1266.61 329.719 1262.67 336.094C 1258.83 342.469 1254.52 347.438 1249.73 351C 1244.95 354.562 1239.94 356.953 1234.69 358.172C 1229.53 359.391 1224.56 360 1219.78 360C 1215.38 360 1211.2 359.391 1207.27 358.172C 1203.42 357.047 1200.05 355.312 1197.14 352.969C 1194.23 350.719 1191.89 347.812 1190.11 344.25C 1188.42 340.781 1187.58 336.703 1187.58 332.016C 1187.58 326.016 1188.98 320.719 1191.8 316.125C 1194.7 311.531 1198.41 307.5 1202.91 304.031C 1207.41 300.656 1212.42 297.75 1217.95 295.312C 1223.58 292.875 1229.11 290.812 1234.55 289.125L 1238.06 273.938C 1233.84 278.438 1228.88 282.188 1223.16 285.188C 1217.53 288.188 1210.97 289.688 1203.47 289.688C 1198.5 289.688 1193.72 288.891 1189.12 287.297C 1184.53 285.703 1180.45 283.078 1176.89 279.422C 1173.33 275.766 1170.47 270.984 1168.31 265.078C 1166.16 259.172 1165.08 251.953 1165.08 243.422C 1165.08 236.859 1165.73 229.828 1167.05 222.328C 1168.36 214.828 1170.38 207.328 1173.09 199.828C 1175.81 192.328 1179.19 185.156 1183.22 178.312C 1187.34 171.375 1192.12 165.281 1197.56 160.031C 1203.09 154.688 1209.33 150.469 1216.27 147.375C 1223.2 144.188 1230.84 142.594 1239.19 142.594C 1247.34 142.594 1253.25 144 1256.91 146.812C 1260.66 149.625 1262.53 153.094 1262.53 157.219L 1262.53 158.906L 1265.62 144L 1307.11 144L 1278.56 277.594C 1282.97 276.094 1286.95 274.312 1290.52 272.25C 1294.08 270.094 1297.31 267.422 1300.22 264.234C 1303.22 260.953 1305.89 257.062 1308.23 252.562C 1310.67 248.062 1312.88 242.672 1314.84 236.391L 1326.94 236.391C 1324.03 245.953 1320.56 253.922 1316.53 260.297C 1312.59 266.672 1308.38 271.922 1303.88 276.047C 1299.38 280.078 1294.73 283.172 1289.95 285.328C 1285.17 287.484 1280.53 289.125 1276.03 290.25L 1271.67 311.062ZM 1259.86 171.141C 1259.86 170.297 1259.67 169.266 1259.3 168.047C 1258.92 166.828 1258.27 165.656 1257.33 164.531C 1256.48 163.406 1255.31 162.469 1253.81 161.719C 1252.31 160.875 1250.39 160.453 1248.05 160.453C 1244.02 160.453 1240.17 161.766 1236.52 164.391C 1232.95 167.016 1229.67 170.531 1226.67 174.938C 1223.67 179.25 1221 184.172 1218.66 189.703C 1216.31 195.234 1214.3 200.953 1212.61 206.859C 1211.02 212.672 1209.8 218.438 1208.95 224.156C 1208.11 229.781 1207.69 234.844 1207.69 239.344C 1207.69 244.875 1208.2 249.141 1209.23 252.141C 1210.27 255.141 1211.48 257.391 1212.89 258.891C 1214.39 260.297 1215.98 261.141 1217.67 261.422C 1219.36 261.703 1220.86 261.844 1222.17 261.844C 1224.14 261.844 1226.25 261.375 1228.5 260.438C 1230.75 259.406 1232.95 257.953 1235.11 256.078C 1237.36 254.203 1239.38 251.859 1241.16 249.047C 1242.94 246.234 1244.3 243 1245.23 239.344L 1259.86 171.141ZM 1231.59 303.609C 1227.84 305.016 1224.28 306.516 1220.91 308.109C 1217.53 309.797 1214.53 311.625 1211.91 313.594C 1209.38 315.562 1207.31 317.719 1205.72 320.062C 1204.22 322.5 1203.47 325.172 1203.47 328.078C 1203.47 329.109 1203.66 330.188 1204.03 331.312C 1204.41 332.438 1204.97 333.469 1205.72 334.406C 1206.56 335.344 1207.59 336.094 1208.81 336.656C 1210.03 337.219 1211.48 337.5 1213.17 337.5C 1216.17 337.5 1219.22 335.391 1222.31 331.172C 1225.5 327.047 1228.03 320.625 1229.91 311.906L 1231.59 303.609ZM 1386 105.75C 1386 108.938 1385.39 111.938 1384.17 114.75C 1382.95 117.469 1381.27 119.859 1379.11 121.922C 1377.05 123.891 1374.61 125.484 1371.8 126.703C 1369.08 127.828 1366.12 128.391 1362.94 128.391C 1359.75 128.391 1356.75 127.828 1353.94 126.703C 1351.22 125.484 1348.83 123.891 1346.77 121.922C 1344.7 119.859 1343.06 117.469 1341.84 114.75C 1340.72 111.938 1340.16 108.938 1340.16 105.75C 1340.16 102.562 1340.72 99.6094 1341.84 96.8906C 1343.06 94.0781 1344.7 91.6406 1346.77 89.5781C 1348.83 87.4219 1351.22 85.7344 1353.94 84.5156C 1356.75 83.2969 1359.75 82.6875 1362.94 82.6875C 1366.12 82.6875 1369.08 83.2969 1371.8 84.5156C 1374.61 85.7344 1377.05 87.4219 1379.11 89.5781C 1381.27 91.6406 1382.95 94.0781 1384.17 96.8906C 1385.39 99.6094 1386 102.562 1386 105.75ZM 1403.86 236.391C 1401.14 244.172 1398.09 250.922 1394.72 256.641C 1391.44 262.359 1387.97 267.188 1384.31 271.125C 1380.75 275.062 1377.05 278.25 1373.2 280.688C 1369.45 283.125 1365.8 285 1362.23 286.312C 1358.67 287.625 1355.25 288.516 1351.97 288.984C 1348.78 289.453 1345.92 289.688 1343.39 289.688C 1339.08 289.688 1335.05 289.031 1331.3 287.719C 1327.55 286.406 1324.27 284.344 1321.45 281.531C 1318.73 278.719 1316.58 275.156 1314.98 270.844C 1313.39 266.531 1312.59 261.328 1312.59 255.234C 1312.59 252.609 1312.78 249.75 1313.16 246.656C 1313.53 243.469 1314.09 240.047 1314.84 236.391L 1334.39 144L 1375.88 144L 1355.2 241.875C 1354.73 243.469 1354.41 245.062 1354.22 246.656C 1354.12 248.156 1354.08 249.656 1354.08 251.156C 1354.08 255.188 1355.02 258 1356.89 259.594C 1358.77 261.094 1361.72 261.844 1365.75 261.844C 1368.56 261.844 1371.28 261.234 1373.91 260.016C 1376.62 258.703 1379.11 256.922 1381.36 254.672C 1383.61 252.422 1385.62 249.75 1387.41 246.656C 1389.19 243.469 1390.64 240.047 1391.77 236.391L 1403.86 236.391ZM 1480.64 247.078C 1479.14 255.422 1476.8 262.312 1473.61 267.75C 1470.42 273.188 1466.62 277.547 1462.22 280.828C 1457.81 284.109 1452.89 286.406 1447.45 287.719C 1442.11 289.031 1436.53 289.688 1430.72 289.688C 1424.06 289.688 1417.97 288.844 1412.44 287.156C 1407 285.375 1402.31 282.656 1398.38 279C 1394.53 275.344 1391.53 270.656 1389.38 264.938C 1387.22 259.125 1386.14 252.141 1386.14 243.984C 1386.14 238.453 1386.7 232.078 1387.83 224.859C 1388.95 217.547 1390.73 210.094 1393.17 202.5C 1395.7 194.906 1398.94 187.453 1402.88 180.141C 1406.91 172.828 1411.78 166.312 1417.5 160.594C 1423.22 154.875 1429.88 150.281 1437.47 146.812C 1445.16 143.25 1453.88 141.469 1463.62 141.469C 1469.91 141.469 1475.11 142.219 1479.23 143.719C 1483.36 145.219 1486.64 147.234 1489.08 149.766C 1491.52 152.297 1493.2 155.156 1494.14 158.344C 1495.08 161.531 1495.55 164.812 1495.55 168.188C 1495.55 171.844 1495.12 174.984 1494.28 177.609C 1493.44 180.234 1492.31 182.391 1490.91 184.078C 1489.5 185.672 1487.86 186.891 1485.98 187.734C 1484.2 188.484 1482.33 188.859 1480.36 188.859C 1476.8 188.859 1473.42 187.734 1470.23 185.484C 1471.36 182.484 1472.2 179.578 1472.77 176.766C 1473.42 173.953 1473.75 171.188 1473.75 168.469C 1473.75 165 1473.09 162.188 1471.78 160.031C 1470.56 157.781 1468.59 156.656 1465.88 156.656C 1462.78 156.656 1459.73 158.062 1456.73 160.875C 1453.73 163.594 1450.83 167.203 1448.02 171.703C 1445.3 176.203 1442.77 181.359 1440.42 187.172C 1438.08 192.984 1436.02 198.938 1434.23 205.031C 1432.55 211.125 1431.19 217.125 1430.16 223.031C 1429.22 228.938 1428.75 234.281 1428.75 239.062C 1428.75 243.562 1429.17 247.359 1430.02 250.453C 1430.86 253.547 1432.03 256.031 1433.53 257.906C 1435.12 259.688 1436.95 261 1439.02 261.844C 1441.17 262.594 1443.52 262.969 1446.05 262.969C 1448.86 262.969 1451.81 262.5 1454.91 261.562C 1458 260.625 1461.09 259.406 1464.19 257.906C 1467.28 256.312 1470.23 254.578 1473.05 252.703C 1475.86 250.828 1478.39 248.953 1480.64 247.078Z"/>
</defs>
</svg>
