<svg width="2485" height="500" viewBox="0 0 2485 500" version="1.1" xmlns="http://www.w3.org/2000/svg" xmlns:xlink="http://www.w3.org/1999/xlink" xmlns:figma="http://www.figma.com/figma/ns">
<title>Group</title>
<desc>Created using Figma</desc>
<g id="Canvas" transform="translate(210 3095)" figma:type="canvas">
<g id="Group" figma:type="frame">
<g id="Group" figma:type="frame">
<g id="Rectangle 2" figma:type="rounded-rectangle">
<use xlink:href="#path0_fill" transform="translate(-210 -3095)" fill="#0F124A"/>
</g>
</g>
<g id="EDMIR ALAGIC" figma:type="vector">
<use xlink:href="#path1_fill" transform="translate(57.75 -2944.75)" fill="#FFFFFF"/>
<use xlink:href="#path2_fill" transform="translate(57.75 -2944.75)" fill="#FFFFFF"/>
<use xlink:href="#path3_fill" transform="translate(57.75 -2944.75)" fill="#FFFFFF"/>
<use xlink:href="#path4_fill" transform="translate(57.75 -2944.75)" fill="#FFFFFF"/>
<use xlink:href="#path5_fill" transform="translate(57.75 -2944.75)" fill="#FFFFFF"/>
<use xlink:href="#path6_fill" transform="translate(57.75 -2944.75)" fill="#FFFFFF"/>
<use xlink:href="#path7_fill" transform="translate(57.75 -2944.75)" fill="#FFFFFF"/>
<use xlink:href="#path8_fill" transform="translate(57.75 -2944.75)" fill="#FFFFFF"/>
<use xlink:href="#path9_fill" transform="translate(57.75 -2944.75)" fill="#FFFFFF"/>
<use xlink:href="#path10_fill" transform="translate(57.75 -2944.75)" fill="#FFFFFF"/>
<use xlink:href="#path11_fill" transform="translate(57.75 -2944.75)" fill="#FFFFFF"/>
</g>
</g>
</g>
<defs>
<path id="path0_fill" d="M 0 0L 2485 0L 2485 500L 0 500L 0 0Z"/>
<path id="path1_fill" d="M 107.25 46.75L 49 46.75L 49 78.25L 104 78.25L 104 119.75L 49 119.75L 49 152.25L 107.25 152.25L 107.25 193.75L 0 193.75L 0 5.25L 107.25 5.25L 107.25 46.75Z"/>
<path id="path2_fill" d="M 194.078 152.25L 205.328 152.25C 213.828 152.25 221.411 150.917 228.078 148.25C 234.745 145.583 240.328 141.917 244.828 137.25C 249.495 132.583 252.995 127.083 255.328 120.75C 257.828 114.25 259.078 107.167 259.078 99.5C 259.078 92 257.828 85 255.328 78.5C 252.828 72 249.245 66.4167 244.578 61.75C 240.078 57.0833 234.495 53.4167 227.828 50.75C 221.161 48.0833 213.661 46.75 205.328 46.75L 194.078 46.75L 194.078 152.25ZM 145.078 5.25L 217.578 5.25C 230.411 5.25 242.411 7.83333 253.578 13C 264.911 18.1667 274.745 25.0833 283.078 33.75C 291.578 42.25 298.245 52.25 303.078 63.75C 307.911 75.0833 310.328 87 310.328 99.5C 310.328 111.833 307.911 123.75 303.078 135.25C 298.411 146.583 291.828 156.583 283.328 165.25C 274.995 173.917 265.161 180.833 253.828 186C 242.661 191.167 230.578 193.75 217.578 193.75L 145.078 193.75L 145.078 5.25Z"/>
<path id="path3_fill" d="M 335.611 193.75L 367.611 5.25L 416.111 5.25L 453.861 105.75L 491.361 5.25L 539.861 5.25L 571.861 193.75L 523.111 193.75L 506.861 85.25L 462.361 193.75L 442.861 193.75L 400.611 85.25L 384.361 193.75L 335.611 193.75Z"/>
<path id="path4_fill" d="M 654.4 5.25L 654.4 193.75L 605.4 193.75L 605.4 5.25L 654.4 5.25Z"/>
<path id="path5_fill" d="M 745.279 89.5L 754.529 89.5C 764.196 89.5 771.613 87.5 776.779 83.5C 781.946 79.5 784.529 73.75 784.529 66.25C 784.529 58.75 781.946 53 776.779 49C 771.613 45 764.196 43 754.529 43L 745.279 43L 745.279 89.5ZM 853.029 193.75L 792.029 193.75L 745.279 121.25L 745.279 193.75L 696.279 193.75L 696.279 5.25L 772.529 5.25C 783.029 5.25 792.196 6.83333 800.029 10C 807.863 13 814.279 17.1667 819.279 22.5C 824.446 27.8333 828.279 34 830.779 41C 833.446 48 834.779 55.5 834.779 63.5C 834.779 77.8333 831.279 89.5 824.279 98.5C 817.446 107.333 807.279 113.333 793.779 116.5L 853.029 193.75Z"/>
<path id="path6_fill" d="M 1065.99 123.75L 1043.99 61L 1021.99 123.75L 1065.99 123.75ZM 1078.99 161L 1008.99 161L 997.736 193.75L 945.486 193.75L 1017.24 5.25L 1070.74 5.25L 1142.49 193.75L 1090.24 193.75L 1078.99 161Z"/>
<path id="path7_fill" d="M 1215.43 5.25L 1215.43 152.25L 1274.18 152.25L 1274.18 193.75L 1166.43 193.75L 1166.43 5.25L 1215.43 5.25Z"/>
<path id="path8_fill" d="M 1412.29 123.75L 1390.29 61L 1368.29 123.75L 1412.29 123.75ZM 1425.29 161L 1355.29 161L 1344.04 193.75L 1291.79 193.75L 1363.54 5.25L 1417.04 5.25L 1488.79 193.75L 1436.54 193.75L 1425.29 161Z"/>
<path id="path9_fill" d="M 1598.38 88.25L 1695.63 88.25C 1695.63 98.25 1695.21 107.333 1694.38 115.5C 1693.55 123.667 1691.88 131.25 1689.38 138.25C 1685.88 148.083 1681.13 156.833 1675.13 164.5C 1669.13 172 1662.05 178.333 1653.88 183.5C 1645.88 188.5 1637.05 192.333 1627.38 195C 1617.71 197.667 1607.55 199 1596.88 199C 1582.21 199 1568.8 196.583 1556.63 191.75C 1544.63 186.917 1534.3 180.167 1525.63 171.5C 1516.96 162.667 1510.21 152.167 1505.38 140C 1500.55 127.667 1498.13 114.083 1498.13 99.25C 1498.13 84.5833 1500.46 71.1667 1505.13 59C 1509.96 46.6667 1516.71 36.1667 1525.38 27.5C 1534.21 18.8333 1544.8 12.0833 1557.13 7.25C 1569.46 2.41667 1583.21 0 1598.38 0C 1618.05 0 1635.3 4.25 1650.13 12.75C 1664.96 21.25 1676.71 34.4167 1685.38 52.25L 1638.88 71.5C 1634.55 61.1667 1628.88 53.75 1621.88 49.25C 1615.05 44.75 1607.21 42.5 1598.38 42.5C 1591.05 42.5 1584.38 43.9167 1578.38 46.75C 1572.38 49.4167 1567.21 53.3333 1562.88 58.5C 1558.71 63.5 1555.38 69.5833 1552.88 76.75C 1550.55 83.9167 1549.38 91.9167 1549.38 100.75C 1549.38 108.75 1550.38 116.167 1552.38 123C 1554.55 129.833 1557.71 135.75 1561.88 140.75C 1566.05 145.75 1571.21 149.667 1577.38 152.5C 1583.55 155.167 1590.71 156.5 1598.88 156.5C 1603.71 156.5 1608.38 156 1612.88 155C 1617.38 153.833 1621.38 152.083 1624.88 149.75C 1628.55 147.25 1631.55 144.083 1633.88 140.25C 1636.21 136.417 1637.8 131.75 1638.63 126.25L 1598.38 126.25L 1598.38 88.25Z"/>
<path id="path10_fill" d="M 1778.1 5.25L 1778.1 193.75L 1729.1 193.75L 1729.1 5.25L 1778.1 5.25Z"/>
<path id="path11_fill" d="M 1955.73 68.25C 1944.4 54.4167 1930.4 47.5 1913.73 47.5C 1906.4 47.5 1899.56 48.8333 1893.23 51.5C 1887.06 54.1667 1881.73 57.8333 1877.23 62.5C 1872.73 67 1869.15 72.4167 1866.48 78.75C 1863.98 85.0833 1862.73 91.9167 1862.73 99.25C 1862.73 106.75 1863.98 113.667 1866.48 120C 1869.15 126.333 1872.73 131.833 1877.23 136.5C 1881.9 141.167 1887.31 144.833 1893.48 147.5C 1899.65 150.167 1906.31 151.5 1913.48 151.5C 1929.15 151.5 1943.23 144.833 1955.73 131.5L 1955.73 189.5L 1950.73 191.25C 1943.23 193.917 1936.23 195.833 1929.73 197C 1923.23 198.333 1916.81 199 1910.48 199C 1897.48 199 1884.98 196.583 1872.98 191.75C 1861.15 186.75 1850.65 179.833 1841.48 171C 1832.48 162 1825.23 151.417 1819.73 139.25C 1814.23 126.917 1811.48 113.5 1811.48 99C 1811.48 84.5 1814.15 71.25 1819.48 59.25C 1824.98 47.0833 1832.23 36.6667 1841.23 28C 1850.4 19.1667 1860.98 12.3333 1872.98 7.5C 1884.98 2.5 1897.56 0 1910.73 0C 1918.23 0 1925.56 0.833333 1932.73 2.5C 1940.06 4 1947.73 6.41667 1955.73 9.75L 1955.73 68.25Z"/>
</defs>
</svg>
